<?xml version="1.0" encoding="UTF-8"?>
<!DOCTYPE svg PUBLIC "-//W3C//DTD SVG 1.1//EN" "http://www.w3.org/Graphics/SVG/1.1/DTD/svg11.dtd">
<!-- Creator: CorelDRAW Home & Student 2018 -->
<svg xmlns="http://www.w3.org/2000/svg" xml:space="preserve" width="424.997mm" height="50mm" version="1.1" style="shape-rendering:geometricPrecision; text-rendering:geometricPrecision; image-rendering:optimizeQuality; fill-rule:evenodd; clip-rule:evenodd"
viewBox="0 0 1450.72 170.67"
 xmlns:xlink="http://www.w3.org/1999/xlink">
 <defs>
  <style type="text/css">
   <![CDATA[
    .fil0 {fill:#212529}
   ]]>
  </style>
 </defs>
 <rect class="fil0" x="4182.42" y="-1933.45" width="34134.88" height="11264.51"/>
 <g id="Ebene_x0020_1">
  <metadata id="CorelCorpID_0Corel-Layer"/>
  <g id="_1338263504">
   <path class="fil1" d="M1271.24 145.07l33.17 0 0.01 -94.88c13.58,0 62.82,-1.46 72.06,1.64 2.71,0.91 0.87,0.27 1.95,0.84 0.02,0.01 2.59,1.79 2.69,1.88 3.24,2.98 4.36,7.91 4.41,14.01 0.08,9.35 1.12,29.48 -0.5,37.36 -2.28,11.1 -11.47,13.43 -24.4,13.36 -12.59,-0.07 -25.19,-0.01 -37.78,-0.01 -1.58,4.27 -7.03,12.23 -10.11,17.55 -2.27,3.93 -3.81,3.82 -4.48,8.24 12.75,0 74.46,0.79 81.49,-0.33 31.66,-5.04 28.07,-33.67 28.89,-47.6l0.94 -23c0,-0.62 -0.91,-3.51 -0.91,-11.06 -0.02,-17.28 -6.39,-32.7 -24.68,-37.06 -2.6,-0.62 -13.56,-2.56 -16.79,-2.56l-105.95 0 0 121.6z"/>
   <path class="fil1" d="M495.42 99.94c0,15.5 0.91,32.44 15.41,39.93 6.46,3.33 13.03,5.16 21.63,6.02 6.65,0.66 19.69,1.03 26.62,1.03 17.54,0 45.82,1.46 61.12,-7.03l7.33 -5.59c8.38,-8.84 8.99,-19.52 8.99,-31.6l0 -79.23 -32.3 0c0.01,23.53 1.38,53.96 -0.79,76.59 -0.53,5.57 0.79,11.36 -4.96,16.23l-5.44 2.83c-8.77,2 -42.43,1.69 -52.79,-0.34 -11.93,-2.33 -12.48,-11.4 -12.48,-28.06l0 -67.25 -32.24 0 -0.08 76.47z"/>
   <path class="fil1" d="M837.3 125.72l25.81 0 0 -61.71 44.21 -0.01c7.04,-0 8.3,3.98 8.29,10.14 -0.04,15.43 -3.86,11.97 -37.74,11.97l-8.86 14.19c-1.42,2.34 -1.77,3.14 -3.14,5.17 10.44,0 20.88,0.01 31.33,0 17.71,-0.01 17.47,-0.77 17.47,20.26l25.84 0c0,-11.89 3.39,-30.43 -13.9,-31.24 0.17,-0.15 0.45,-0.6 0.53,-0.43 0,0.01 8.61,-4.63 10.08,-6.62l2.58 -4.76c3.01,-8.57 3.5,-26.88 -6.61,-34.41l-4.08 -2.38c-6.32,-3.05 -11.99,-2.15 -19.01,-2.15l-72.78 0 -0.01 82z"/>
   <path class="fil1" d="M1214.96 66.77l0.35 4.02 -58.33 -0.36 -11.35 19.09c-0.11,0.17 -0.25,0.4 -0.36,0.57 -1.93,2.96 -2.85,3.25 -4.22,7.1l73.98 0 -0.06 47.89 32.36 0 0 -121.6 -32.34 0 -0.02 43.3z"/>
   <path class="fil1" d="M995.7 95.4c0.82,-4.17 -0.2,-0.33 2.19,-4.43l9.83 -18.73c0.1,-0.18 0.24,-0.4 0.35,-0.58l5.21 -8.51c2.37,1.78 16.6,28.44 17.51,32.19l-35.09 0.07zm-44.15 30.32c7.54,0 17.8,0.62 24.97,0.1 4.51,-0.32 2.27,1.03 4.92,-3.39l1.73 -2.87c1.75,-3.05 2.67,-5.96 4.35,-8.53l52.46 -0.04c2.57,4.74 4.81,9.92 7.38,14.73l28.68 0 -11.23 -20.17c-0.81,-1.29 -0.65,-0.84 -1.47,-2.22l-17.9 -32.8c-0.89,-1.85 -1.71,-3.75 -2.67,-5.63 -2.62,-5.15 -10.08,-16.95 -11.06,-21.17l-35.03 -0.02c-0.86,1.63 -1.45,3.14 -2.44,4.93l-24.03 43.25c-0.62,1.02 -0.95,1.31 -1.77,2.82 -1.1,2.01 -1.36,3.07 -2.47,4.93l-14.42 26.08z"/>
   <polygon class="fil1" points="1104.46,145.07 1136.75,145.07 1136.75,23.47 1104.54,23.47 "/>
   <polygon class="fil1" points="725.82,64.93 762.71,64.91 762.66,125.72 788.36,125.72 788.49,64.94 824.41,64.93 824.41,43.73 725.83,43.73 "/>
   <polygon class="fil1" points="660.41,125.72 743.34,125.72 743.34,104.54 689.9,104.54 686.32,104.46 686.21,100.86 686.23,43.73 660.41,43.73 "/>
   <path class="fil1" d="M33.65 0l1383.41 0c18.51,0 33.65,15.15 33.65,33.65l0 103.36c0,18.51 -15.14,33.66 -33.65,33.66l-1383.41 0c-18.51,0 -33.65,-15.15 -33.65,-33.66l0 -103.36c0,-18.51 15.14,-33.65 33.65,-33.65zm68.69 90.62c0.56,-0.36 0.59,-0.38 1.14,-0.76l1.12 -0.84c0.77,-0.61 0.78,-0.73 1.82,-1.41l19.22 -13.4c0.65,-0.45 0.4,-0.27 1.15,-0.73l10.07 -6.99c0.09,-0.06 0.2,-0.14 0.29,-0.2l18.35 -12.79c0.68,-0.5 1.03,-0.8 2.03,-1.28l-0.07 48.05 -50.16 0.02c-2.92,0.02 -16.25,0.75 -18.16,-0.72l13.2 -8.97zm125.49 37.75l0.02 -22.03 -23.02 -0.11c-0.66,-2.23 -0.84,-75.03 -0.17,-80.11l-65.83 0.08c-8.82,5.37 -16.6,11.54 -25.28,17.49l-12.67 9.06c-2.25,1.44 -3.83,2.91 -6.26,4.63l-62.5 45.15c-2.29,1.82 -4.63,2.35 -5.73,5.3 -2.43,6.51 -1.75,13.32 2.88,16.15 5.12,3.12 12.75,2.1 19.44,2.1 7.23,0.01 14.52,-0.07 21.74,0.02 28.67,0.33 58.04,-0.81 86.57,0.06l0.03 18.72 47.57 -0.14 0.12 -16.35 23.1 -0.02zm8.19 16.18l48.44 0.15 0.15 -49.07c2.05,0.13 0.64,-0.03 1.08,0.67l0.79 0.19c0.91,-0.24 0.74,-0.48 0.74,0.37l13.72 8.74c1.48,0.9 2.16,1.29 3.48,2.17l47.38 29.82c2.38,1.46 4.58,2.79 7.15,4.5 4.26,2.84 3.1,2.68 9.19,2.65 18.7,-0.08 41.38,0.84 59.03,-0.08 -1.43,-1.48 -10.03,-6.51 -12.52,-8.04l-64.69 -39.89c-4.82,-3.05 -8.22,-5 -12.87,-7.97l-9.69 -5.83c-0.73,-0.46 -1.1,-0.66 -1.68,-1.07l-1.65 -1.4c0.1,-0.08 0.24,-0.32 0.28,-0.23l94.05 -52.96c0.36,-0.26 0.25,-0.17 0.57,-0.44 0.63,-0.54 0.35,-0.23 0.81,-0.81 -16.04,-0.91 -37.32,0.01 -54.48,-0.07 -7.63,-0.04 -7.16,-0.11 -16.22,5.72l-20.45 12.12c-2.49,1.52 -4.63,2.57 -6.95,3.94l-27.34 16.13c-2,1.15 -4.68,2.98 -6.85,3.77 0,0.95 0.17,0.67 -0.83,0.34 -0.18,0.76 0.55,0.55 -0.82,0.55l-0.81 0.6 -1.08 0.47 0.16 -43.53 -48.31 0.04 0.21 118.46zm226.19 -138.15l955.06 0c14.47,0 26.31,11.84 26.31,26.31l0 105.25c0,14.47 -11.84,26.31 -26.31,26.31l-955.06 0 0 -157.87z"/>
  </g>
 </g>
</svg>
